<svg width="24" height="24" viewBox="0 0 24 24" fill="none" xmlns="http://www.w3.org/2000/svg">
<path d="M22.0001 16.92V19.92C22.0012 20.1985 21.9441 20.4741 21.8326 20.7293C21.721 20.9845 21.5574 21.2136 21.3521 21.4018C21.1469 21.5901 20.9046 21.7335 20.6408 21.8227C20.377 21.9119 20.0974 21.945 19.8201 21.92C16.7429 21.5856 13.7871 20.5341 11.1901 18.85C8.77388 17.3146 6.72539 15.2661 5.19006 12.85C3.50003 10.2412 2.4483 7.27097 2.12006 4.17997C2.09507 3.90344 2.12793 3.62474 2.21656 3.3616C2.30518 3.09846 2.44763 2.85666 2.63482 2.6516C2.82202 2.44653 3.04986 2.28268 3.30385 2.1705C3.55783 2.05831 3.8324 2.00024 4.11006 1.99997H7.11006C7.59536 1.9952 8.06585 2.16705 8.43382 2.48351C8.80179 2.79996 9.04213 3.23942 9.11005 3.71997C9.23668 4.68004 9.47151 5.6227 9.81006 6.52997C9.9446 6.8879 9.97372 7.27689 9.89396 7.65086C9.81421 8.02482 9.62892 8.36809 9.36005 8.63998L8.09006 9.90997C9.51361 12.4135 11.5865 14.4864 14.0901 15.91L15.3601 14.64C15.6319 14.3711 15.9752 14.1858 16.3492 14.1061C16.7231 14.0263 17.1121 14.0554 17.4701 14.19C18.3773 14.5285 19.32 14.7634 20.2801 14.89C20.7658 14.9585 21.2095 15.2032 21.5266 15.5775C21.8437 15.9518 22.0122 16.4296 22.0001 16.92Z" stroke="#505050" stroke-linecap="round" stroke-linejoin="round"/>
<mask id="path-3-inside-1" fill="white">
<path d="M21.7 2.3C21.3 1.9 20.7 1.9 20.3 2.3L15 7.6V4C15 3.4 14.6 3 14 3C13.4 3 13 3.4 13 4V10C13 10.1 13 10.3 13.1 10.4C13.2 10.6 13.4 10.8 13.6 10.9C13.7 11 13.9 11 14 11H20C20.6 11 21 10.6 21 10C21 9.4 20.6 9 20 9H16.4L21.7 3.7C22.1 3.3 22.1 2.7 21.7 2.3Z"/>
</mask>
<path d="M20.3 2.3L18.8858 0.885786L18.8858 0.885787L20.3 2.3ZM15 7.6H13V12.4284L16.4142 9.01421L15 7.6ZM13.1 10.4L14.8889 9.50557L14.7437 9.21528L14.5142 8.98579L13.1 10.4ZM13.6 10.9L15.0142 9.48579L14.7847 9.25629L14.4944 9.11115L13.6 10.9ZM16.4 9L14.9858 7.58579L11.5716 11H16.4V9ZM21.7 3.7L23.1142 5.11421L23.1142 5.11421L21.7 3.7ZM23.1142 0.885786C21.9332 -0.295262 20.0668 -0.295262 18.8858 0.885786L21.7142 3.71421C21.5511 3.87732 21.2971 4 21 4C20.7029 4 20.4489 3.87732 20.2858 3.71421L23.1142 0.885786ZM18.8858 0.885787L13.5858 6.18579L16.4142 9.01421L21.7142 3.71421L18.8858 0.885787ZM17 7.6V4H13V7.6H17ZM17 4C17 3.2455 16.7398 2.46134 16.1392 1.86079C15.5387 1.26023 14.7545 1 14 1V5C13.8455 5 13.5613 4.93977 13.3108 4.68921C13.0602 4.43866 13 4.1545 13 4H17ZM14 1C13.2455 1 12.4613 1.26023 11.8608 1.86079C11.2602 2.46134 11 3.2455 11 4H15C15 4.1545 14.9398 4.43866 14.6892 4.68921C14.4387 4.93977 14.1545 5 14 5V1ZM11 4V10H15V4H11ZM11 10C11 10.0385 10.9964 10.2691 11.0397 10.5288C11.0753 10.7425 11.1924 11.3208 11.6858 11.8142L14.5142 8.98579C14.7237 9.19529 14.8352 9.41022 14.8933 9.55211C14.9514 9.69416 14.975 9.80957 14.9853 9.8712C15.0036 9.98089 15 10.0615 15 10H11ZM11.3111 11.2944C11.6047 11.8815 12.1185 12.3953 12.7056 12.6889L14.4944 9.11115C14.6186 9.17324 14.6897 9.23626 14.7267 9.27329C14.7637 9.31031 14.8268 9.38138 14.8889 9.50557L11.3111 11.2944ZM12.1858 12.3142C12.6792 12.8076 13.2575 12.9247 13.4712 12.9603C13.7309 13.0036 13.9615 13 14 13V9C13.9385 9 14.0191 8.99643 14.1288 9.01471C14.1904 9.02498 14.3058 9.04861 14.4479 9.10672C14.5898 9.16476 14.8047 9.27628 15.0142 9.48579L12.1858 12.3142ZM14 13H20V9H14V13ZM20 13C20.7545 13 21.5387 12.7398 22.1392 12.1392C22.7398 11.5387 23 10.7545 23 10H19C19 9.8455 19.0602 9.56134 19.3108 9.31079C19.5613 9.06023 19.8455 9 20 9V13ZM23 10C23 9.2455 22.7398 8.46134 22.1392 7.86079C21.5387 7.26023 20.7545 7 20 7V11C19.8455 11 19.5613 10.9398 19.3108 10.6892C19.0602 10.4387 19 10.1545 19 10H23ZM20 7H16.4V11H20V7ZM17.8142 10.4142L23.1142 5.11421L20.2858 2.28579L14.9858 7.58579L17.8142 10.4142ZM23.1142 5.11421C24.2953 3.93317 24.2953 2.06684 23.1142 0.885786L20.2858 3.71421C20.1227 3.55111 20 3.29712 20 3C20 2.70288 20.1227 2.44889 20.2858 2.28579L23.1142 5.11421Z" fill="#505050" mask="url(#path-3-inside-1)"/>
</svg>
