<svg width="40" height="40" viewBox="0 0 40 40" fill="none" xmlns="http://www.w3.org/2000/svg">
<rect x="5.5" y="10.5" width="29" height="19" rx="0.5" stroke="#4F4F4F" stroke-linejoin="round"/>
<path d="M30.2799 22.8898C30.3315 22.8698 30.3784 22.8392 30.4176 22.8L30.451 22.7167C30.4882 22.6795 30.5178 22.6353 30.538 22.5867C30.5582 22.5381 30.5686 22.486 30.5686 22.4333C30.5686 22.3807 30.5582 22.3286 30.538 22.2799C30.5178 22.2313 30.4882 22.1872 30.451 22.15L24.8176 16.5333L21.601 19.7667L20.5843 18.75L16.0843 23.2333C16.0117 23.3131 15.9714 23.4171 15.9714 23.525C15.9714 23.6329 16.0117 23.7369 16.0843 23.8167C16.1218 23.8592 16.168 23.8933 16.2197 23.9167C16.2714 23.94 16.3275 23.9521 16.3843 23.9521C16.441 23.9521 16.4971 23.94 16.5489 23.9167C16.6006 23.8933 16.6468 23.8592 16.6843 23.8167L20.5843 19.8833L24.2676 23.5667C24.3479 23.6268 24.4471 23.6561 24.5472 23.6489C24.6472 23.6418 24.7413 23.5989 24.8122 23.528C24.8832 23.457 24.9261 23.3629 24.9332 23.2629C24.9404 23.1628 24.9111 23.0636 24.851 22.9833L22.1843 20.3167L24.8176 17.8L29.8176 22.8C29.8989 22.876 30.0064 22.9177 30.1176 22.9167C30.173 22.919 30.2282 22.9099 30.2799 22.8898Z" fill="#4F4F4F"/>
<circle cx="16.5" cy="17.5" r="1.125" stroke="#4F4F4F" stroke-width="0.75"/>
<circle cx="9" cy="20" r="1.625" stroke="#4F4F4F" stroke-width="0.75"/>
<line x1="12.375" y1="10" x2="12.375" y2="29" stroke="#505050" stroke-width="0.75"/>
<line x1="8.5" y1="12.5" x2="9.5" y2="12.5" stroke="#505050" stroke-linecap="round"/>
<line x1="8.5" y1="14.5" x2="9.5" y2="14.5" stroke="#505050" stroke-linecap="round"/>
<line x1="8.5" y1="27.5" x2="9.5" y2="27.5" stroke="#505050" stroke-linecap="round"/>
<line x1="8.5" y1="25.5" x2="9.5" y2="25.5" stroke="#505050" stroke-linecap="round"/>
</svg>
