<svg width="40" height="40" viewBox="0 0 40 40" fill="none" xmlns="http://www.w3.org/2000/svg">
<circle cx="20" cy="20" r="14.5" stroke="#4F4F4F"/>
<path d="M21.84 17.456V26H18.672V17.456H21.84ZM20.256 12.736C20.768 12.736 21.1893 12.9013 21.52 13.232C21.8613 13.552 22.032 13.952 22.032 14.432C22.032 14.912 21.8613 15.3173 21.52 15.648C21.1893 15.968 20.768 16.128 20.256 16.128C19.744 16.128 19.3173 15.968 18.976 15.648C18.6453 15.3173 18.48 14.912 18.48 14.432C18.48 13.952 18.6453 13.552 18.976 13.232C19.3173 12.9013 19.744 12.736 20.256 12.736Z" fill="#4F4F4F"/>
</svg>
