<svg width="40" height="40" viewBox="0 0 40 40" fill="none" xmlns="http://www.w3.org/2000/svg">
<path d="M29.1707 11.6292L32.7672 16.2841C30.0072 17.8536 27.927 20.7104 27.927 24C27.927 26.419 29.3157 28.5491 31.3293 30.0018L27.4891 34.7075C26.7648 33.6976 25.2181 33 23.427 33C21.6855 33 20.1751 33.6595 19.427 34.6243C18.6789 33.6595 17.1685 33 15.427 33C13.6384 33 12.0935 33.6957 11.3679 34.7033L7.52871 29.9989C9.54016 28.5463 10.927 26.4174 10.927 24C10.927 20.676 8.80314 17.7939 6 16.2353L9.59961 11.5765C10.4923 12.1477 11.4968 12.5 12.427 12.5C14.7464 12.5 16.2204 10.3227 16.8133 8H22.0407C22.6336 10.3227 24.1077 12.5 26.427 12.5C27.3283 12.5 28.2992 12.1693 29.1707 11.6292Z" stroke="#4D4D4D" stroke-width="0.75"/>
<path d="M28.1783 13.8536L30 16.5138C27.8346 17.7479 26.2027 20.9941 26.2027 23.5807C26.2027 25.4828 27 28.5 28.8719 30.3L26.8591 32C26 31.5 24.0774 30.6574 22.6722 30.6574C21.306 30.6574 20.0869 31.2414 19.5 32C18.9131 31.2414 17.7621 30.6574 16.3959 30.6574C14.9926 30.6574 13 31.5 12.2113 31.9967L10.1993 30.2977C12 28.5 12.8654 25.4816 12.8654 23.5807C12.8654 20.9671 11.1992 17.7009 9 16.4754L10.824 13.8122C11.5244 14.2613 13.3124 14.5383 14.0423 14.5383C15.8619 14.5383 17.0183 12.8263 17.4835 11H21.5846C22.0498 12.8263 23.2062 14.5383 25.0258 14.5383C25.7329 14.5383 27.4946 14.2783 28.1783 13.8536Z" stroke="#4D4D4D" stroke-width="0.75" stroke-dasharray="2 1"/>
<circle cx="19.5" cy="13.5" r="1.125" stroke="#4D4D4D" stroke-width="0.75"/>
<path d="M21 8C21.5 4 20.3284 4 19.5 4C18.6716 4 18 4.67157 18 5.5C18 6.32843 18.6716 13 19.5 13" stroke="#4D4D4D" stroke-width="0.75" stroke-linecap="round"/>
</svg>
