<svg width="120" height="24" viewBox="0 0 120 24" fill="none" xmlns="http://www.w3.org/2000/svg">
<path d="M10.5469 14.1359H3.73884L2.20982 18.7826H0L6.20536 0.978261H8.08036L14.2969 18.7826H12.0982L10.5469 14.1359ZM4.38616 12.2038H9.91071L7.14286 3.87636L4.38616 12.2038Z" fill="#828282"/>
<path d="M18.1138 5.55163L18.1808 7.21467C19.1034 5.94293 20.3088 5.30707 21.7969 5.30707C24.349 5.30707 25.6362 6.88451 25.6585 10.0394V18.7826H23.5938V10.0272C23.5863 9.07337 23.3854 8.36821 22.9911 7.91168C22.6042 7.45516 21.9978 7.2269 21.1719 7.2269C20.5022 7.2269 19.9144 7.42255 19.4085 7.81386C18.9025 8.20516 18.5082 8.71875 18.2254 9.35462V18.7826H16.1607V5.55163H18.1138Z" fill="#828282"/>
<path d="M31.0156 18.7826H28.9509V5.55163H31.0156V18.7826Z" fill="#828282"/>
<path d="M37.7009 12.6562L36.4063 14.1359V18.7826H34.3415V0H36.4063V11.3601L37.5112 9.90489L41.2723 5.55163H43.7835L39.0848 11.0788L44.3304 18.7826H41.9085L37.7009 12.6562Z" fill="#828282"/>
<path d="M53.3705 18.7826C53.2515 18.5217 53.1548 18.0571 53.0804 17.3886C52.1205 18.481 50.9747 19.0272 49.6429 19.0272C48.4524 19.0272 47.474 18.6603 46.7076 17.9266C45.9487 17.1848 45.5692 16.2473 45.5692 15.1141C45.5692 13.7364 46.0454 12.6685 46.9978 11.9103C47.9576 11.144 49.3043 10.7609 51.0379 10.7609H53.0469V9.72147C53.0469 8.93071 52.8311 8.30299 52.3996 7.83832C51.968 7.36549 51.3318 7.12908 50.4911 7.12908C49.7545 7.12908 49.1369 7.33288 48.6384 7.74049C48.1399 8.1481 47.8906 8.6413 47.8906 9.22011H45.8147C45.8147 8.55978 46.0268 7.92391 46.4509 7.3125C46.8824 6.69293 47.4628 6.2038 48.192 5.84511C48.9286 5.48641 49.7359 5.30707 50.6138 5.30707C52.0052 5.30707 53.0952 5.69022 53.8839 6.45652C54.6726 7.21467 55.0818 8.26223 55.1116 9.59918V15.6889C55.1116 16.9035 55.253 17.8696 55.5357 18.587V18.7826H53.3705ZM49.9442 17.0584C50.5915 17.0584 51.2054 16.875 51.7857 16.5082C52.3661 16.1413 52.7865 15.6644 53.0469 15.0774V12.3628H51.4286C48.8988 12.3628 47.6339 13.1739 47.6339 14.7962C47.6339 15.5054 47.8497 16.0598 48.2813 16.4592C48.7128 16.8587 49.2671 17.0584 49.9442 17.0584Z" fill="#828282"/>
<path d="M60.9524 11.9795C60.9524 10.6426 61.1533 9.46049 61.5551 8.43332C61.9569 7.40614 62.5335 6.61538 63.285 6.06104C64.0365 5.49854 64.9107 5.21729 65.9077 5.21729C67.1652 5.21729 68.1473 5.68196 68.8542 6.61131L68.9881 5.46185H72.4033V18.1915C72.4033 19.3572 72.154 20.3681 71.6555 21.2241C71.1644 22.0882 70.4502 22.7485 69.5127 23.2051C68.5752 23.6697 67.4889 23.9021 66.2537 23.9021C65.3683 23.9021 64.5089 23.7186 63.6756 23.3518C62.8497 22.985 62.2173 22.508 61.7783 21.9211L63.3519 19.4999C64.0514 20.4048 64.974 20.8572 66.1198 20.8572C67.7865 20.8572 68.6198 19.9197 68.6198 18.0447V17.629C67.8981 18.5013 66.9866 18.9374 65.8854 18.9374C64.4122 18.9374 63.2217 18.3219 62.314 17.0909C61.4063 15.8518 60.9524 14.1969 60.9524 12.1263V11.9795ZM64.7247 12.2363C64.7247 13.3205 64.9107 14.1806 65.2827 14.8165C65.6548 15.4442 66.1756 15.758 66.8452 15.758C67.6563 15.758 68.2478 15.4605 68.6198 14.8654V9.30152C68.2552 8.69826 67.6711 8.39663 66.8676 8.39663C66.1979 8.39663 65.6734 8.7268 65.2939 9.38712C64.9144 10.0393 64.7247 10.989 64.7247 12.2363Z" fill="#828282"/>
<path d="M81.8452 9.19147L80.6064 9.09364C79.4234 9.09364 78.6644 9.50125 78.3296 10.3165V18.6928H74.5685V5.46185H78.0952L78.218 7.16158C78.8505 5.86538 79.7322 5.21729 80.8631 5.21729C81.2649 5.21729 81.6146 5.2662 81.9122 5.36402L81.8452 9.19147Z" fill="#828282"/>
<path d="M82.3252 11.9551C82.3252 10.6344 82.5595 9.46049 83.0283 8.43332C83.497 7.39799 84.1704 6.60315 85.0484 6.04881C85.9263 5.49446 86.9569 5.21729 88.1399 5.21729C89.9479 5.21729 91.3728 5.83277 92.4144 7.06375C93.4561 8.28658 93.9769 9.9537 93.9769 12.0651V12.2119C93.9769 14.2744 93.4524 15.9129 92.4033 17.1276C91.3616 18.3341 89.9479 18.9374 88.1622 18.9374C86.4435 18.9374 85.0633 18.3749 84.0216 17.2499C82.9799 16.1167 82.4182 14.5841 82.3363 12.6521L82.3252 11.9551ZM86.0863 12.2119C86.0863 13.4347 86.2612 14.3314 86.6109 14.9021C86.9606 15.4727 87.4777 15.758 88.1622 15.758C89.5015 15.758 90.186 14.629 90.2158 12.3708V11.9551C90.2158 9.58277 89.5238 8.39663 88.1399 8.39663C86.8825 8.39663 86.2016 9.41973 86.0975 11.4659L86.0863 12.2119Z" fill="#828282"/>
<path d="M102.827 17.2621C102.031 18.379 100.956 18.9374 99.6019 18.9374C98.2775 18.9374 97.2731 18.5176 96.5886 17.6779C95.9115 16.8301 95.5729 15.6154 95.5729 14.0339V5.46185H99.3341V14.0583C99.3341 15.1915 99.8363 15.758 100.841 15.758C101.704 15.758 102.318 15.4197 102.682 14.7431V5.46185H106.466V18.6928H102.939L102.827 17.2621Z" fill="#828282"/>
<path d="M119.747 12.1752C119.747 14.2295 119.323 15.8722 118.475 17.1032C117.634 18.326 116.496 18.9374 115.06 18.9374C113.951 18.9374 113.039 18.4931 112.325 17.6045V23.7798H108.564V5.46185H112.08L112.191 6.68468C112.913 5.70642 113.862 5.21729 115.037 5.21729C116.525 5.21729 117.682 5.82055 118.508 7.02707C119.334 8.22544 119.747 9.87625 119.747 11.9795V12.1752ZM115.986 11.9184C115.986 9.57055 115.361 8.39663 114.111 8.39663C113.218 8.39663 112.623 8.74718 112.325 9.44826V14.6575C112.653 15.3912 113.255 15.758 114.133 15.758C115.331 15.758 115.949 14.6249 115.986 12.3586V11.9184Z" fill="#828282"/>
<ellipse cx="30.0001" cy="1.56522" rx="1.42857" ry="1.56522" fill="#616161"/>
<rect x="58.0952" y="12.5217" width="4.76191" height="2.08696" fill="#616161"/>
</svg>
