<svg width="178" height="36" viewBox="0 0 178 36" fill="none" xmlns="http://www.w3.org/2000/svg">
<path d="M15.6445 21.2038H5.54594L3.2779 28.1739H0L9.20461 1.46739H11.9859L21.207 28.1739H17.9457L15.6445 21.2038ZM6.50614 18.3057H14.7009L10.5952 5.81454L6.50614 18.3057Z" fill="#505050"/>
<path d="M26.8689 8.32745L26.9682 10.822C28.3367 8.9144 30.1247 7.9606 32.332 7.9606C36.1176 7.9606 38.027 10.3268 38.0601 15.0591V28.1739H34.9974V15.0408C34.9864 13.6101 34.6884 12.5523 34.1034 11.8675C33.5295 11.1827 32.63 10.8404 31.4049 10.8404C30.4116 10.8404 29.5397 11.1338 28.7892 11.7208C28.0388 12.3077 27.4538 13.0781 27.0344 14.0319V28.1739H23.9717V8.32745H26.8689Z" fill="#505050"/>
<path d="M46.0065 28.1739H42.9438V8.32745H46.0065V28.1739Z" fill="#505050"/>
<path d="M55.923 18.9844L54.0026 21.2038V28.1739H50.9399V0H54.0026V17.0401L55.6416 14.8573L61.2206 8.32745H64.9455L57.9758 16.6182L65.7567 28.1739H62.1642L55.923 18.9844Z" fill="#505050"/>
<path d="M79.1663 28.1739C78.9897 27.7826 78.8462 27.0856 78.7359 26.0829C77.3121 27.7215 75.6125 28.5408 73.6369 28.5408C71.871 28.5408 70.4197 27.9905 69.2829 26.8899C68.1572 25.7772 67.5943 24.3709 67.5943 22.6712C67.5943 20.6046 68.3007 19.0027 69.7134 17.8655C71.1371 16.716 73.1347 16.1413 75.7063 16.1413H78.6862V14.5822C78.6862 13.3961 78.3661 12.4545 77.726 11.7575C77.0859 11.0482 76.1422 10.6936 74.8951 10.6936C73.8025 10.6936 72.8864 10.9993 72.1469 11.6107C71.4075 12.2221 71.0378 12.962 71.0378 13.8302H67.9585C67.9585 12.8397 68.2731 11.8859 68.9022 10.9688C69.5423 10.0394 70.4031 9.30571 71.4847 8.76766C72.5774 8.22962 73.7749 7.9606 75.0772 7.9606C77.1411 7.9606 78.7579 8.53533 79.9278 9.68478C81.0977 10.822 81.7047 12.3933 81.7489 14.3988V23.5333C81.7489 25.3553 81.9586 26.8043 82.378 27.8804V28.1739H79.1663ZM74.0839 25.5876C75.0441 25.5876 75.9546 25.3125 76.8155 24.7622C77.6763 24.212 78.2999 23.4966 78.6862 22.6162V18.5442H76.2857C72.5332 18.5442 70.657 19.7609 70.657 22.1943C70.657 23.2582 70.9771 24.0897 71.6172 24.6889C72.2573 25.288 73.0795 25.5876 74.0839 25.5876Z" fill="#505050"/>
<path d="M90.4126 17.9693C90.4126 15.9638 90.7106 14.1907 91.3066 12.65C91.9026 11.1092 92.7579 9.92307 93.8726 9.09155C94.9873 8.2478 96.2841 7.82593 97.763 7.82593C99.6282 7.82593 101.085 8.52294 102.134 9.91696L102.332 8.19278H107.398V27.2872C107.398 29.0358 107.028 30.5522 106.289 31.8361C105.56 33.1323 104.501 34.1228 103.11 34.8076C101.72 35.5046 100.108 35.8531 98.2763 35.8531C96.9629 35.8531 95.6881 35.578 94.452 35.0277C93.227 34.4774 92.2888 33.7621 91.6377 32.8816L93.9719 29.2498C95.0094 30.6072 96.3779 31.2858 98.0776 31.2858C100.55 31.2858 101.786 29.8796 101.786 27.0671V26.4435C100.715 27.7519 99.3634 28.4061 97.7299 28.4061C95.5447 28.4061 93.7788 27.4829 92.4323 25.6364C91.0858 23.7777 90.4126 21.2954 90.4126 18.1894V17.9693ZM96.0082 18.3545C96.0082 19.9808 96.2841 21.2709 96.836 22.2247C97.3878 23.1663 98.1604 23.6371 99.1537 23.6371C100.357 23.6371 101.234 23.1907 101.786 22.2981V13.9523C101.245 13.0474 100.379 12.5949 99.1868 12.5949C98.1935 12.5949 97.4154 13.0902 96.8525 14.0807C96.2896 15.0589 96.0082 16.4835 96.0082 18.3545Z" fill="#505050"/>
<path d="M121.404 13.7872L119.566 13.6405C117.811 13.6405 116.685 14.2519 116.189 15.4747V28.0392H110.61V8.19278H115.841L116.023 10.7424C116.961 8.79807 118.269 7.82593 119.947 7.82593C120.543 7.82593 121.062 7.8993 121.503 8.04604L121.404 13.7872Z" fill="#505050"/>
<path d="M122.116 17.9326C122.116 15.9516 122.463 14.1907 123.159 12.65C123.854 11.097 124.853 9.90473 126.155 9.07321C127.457 8.24169 128.986 7.82593 130.741 7.82593C133.423 7.82593 135.536 8.74916 137.081 10.5956C138.626 12.4299 139.399 14.9305 139.399 18.0977V18.3178C139.399 21.4115 138.621 23.8694 137.065 25.6914C135.52 27.5012 133.423 28.4061 130.774 28.4061C128.224 28.4061 126.177 27.5623 124.632 25.8748C123.087 24.1751 122.253 21.8762 122.132 18.9781L122.116 17.9326ZM127.695 18.3178C127.695 20.152 127.954 21.4971 128.473 22.3531C128.991 23.2091 129.758 23.6371 130.774 23.6371C132.76 23.6371 133.776 21.9435 133.82 18.5562V17.9326C133.82 14.3742 132.794 12.5949 130.741 12.5949C128.876 12.5949 127.866 14.1296 127.711 17.1989L127.695 18.3178Z" fill="#505050"/>
<path d="M152.527 25.8932C151.346 27.5685 149.751 28.4061 147.743 28.4061C145.778 28.4061 144.288 27.7763 143.273 26.5168C142.269 25.2451 141.766 23.4231 141.766 21.0508V8.19278H147.345V21.0875C147.345 22.7872 148.09 23.6371 149.58 23.6371C150.861 23.6371 151.771 23.1296 152.312 22.1147V8.19278H157.924V28.0392H152.693L152.527 25.8932Z" fill="#505050"/>
<path d="M177.625 18.2627C177.625 21.3443 176.996 23.8083 175.737 25.6547C174.49 27.489 172.802 28.4061 170.672 28.4061C169.027 28.4061 167.675 27.7397 166.616 26.4068V35.6697H161.036V8.19278H166.251L166.417 10.027C167.487 8.55962 168.895 7.82593 170.638 7.82593C172.846 7.82593 174.562 8.73082 175.787 10.5406C177.012 12.3382 177.625 14.8144 177.625 17.9693V18.2627ZM172.046 17.8776C172.046 14.3558 171.119 12.5949 169.264 12.5949C167.94 12.5949 167.057 13.1208 166.616 14.1724V21.9863C167.101 23.0868 167.995 23.6371 169.297 23.6371C171.074 23.6371 171.99 21.9373 172.046 18.5379V17.8776Z" fill="#505050"/>
<ellipse cx="44.5002" cy="2.34783" rx="2.11905" ry="2.34783" fill="#E94E1B"/>
<rect x="86.1746" y="18.7827" width="7.06351" height="3.13043" fill="#E94E1B"/>
</svg>
